<svg viewBox="0 0 800 450" xmlns="http://www.w3.org/2000/svg" font-family="'Segoe UI', Arial, sans-serif">
  <defs>
    <linearGradient id="bg" x1="0%" y1="0%" x2="100%" y2="100%">
      <stop offset="0%" style="stop-color:#0f172a"/>
      <stop offset="100%" style="stop-color:#0d1f2d"/>
    </linearGradient>
    <linearGradient id="stepGrad1" x1="0%" y1="0%" x2="100%" y2="0%">
      <stop offset="0%" style="stop-color:#0284c7"/>
      <stop offset="100%" style="stop-color:#0369a1"/>
    </linearGradient>
    <linearGradient id="stepGrad2" x1="0%" y1="0%" x2="100%" y2="0%">
      <stop offset="0%" style="stop-color:#7c3aed"/>
      <stop offset="100%" style="stop-color:#6d28d9"/>
    </linearGradient>
    <linearGradient id="stepGrad3" x1="0%" y1="0%" x2="100%" y2="0%">
      <stop offset="0%" style="stop-color:#0d9488"/>
      <stop offset="100%" style="stop-color:#0f766e"/>
    </linearGradient>
    <linearGradient id="stepGrad4" x1="0%" y1="0%" x2="100%" y2="0%">
      <stop offset="0%" style="stop-color:#16a34a"/>
      <stop offset="100%" style="stop-color:#15803d"/>
    </linearGradient>
    <filter id="glow">
      <feGaussianBlur stdDeviation="3" result="coloredBlur"/>
      <feMerge><feMergeNode in="coloredBlur"/><feMergeNode in="SourceGraphic"/></feMerge>
    </filter>
  </defs>

  <rect width="800" height="450" fill="url(#bg)"/>

  <!-- Grid -->
  <g stroke="#1e293b" stroke-width="1" opacity="0.5">
    <line x1="0" y1="112" x2="800" y2="112"/>
    <line x1="0" y1="224" x2="800" y2="224"/>
    <line x1="0" y1="336" x2="800" y2="336"/>
    <line x1="200" y1="0" x2="200" y2="450"/>
    <line x1="400" y1="0" x2="400" y2="450"/>
    <line x1="600" y1="0" x2="600" y2="450"/>
  </g>

  <!-- Progress track -->
  <line x1="100" y1="80" x2="700" y2="80" stroke="#1e293b" stroke-width="4" stroke-linecap="round"/>
  <line x1="100" y1="80" x2="550" y2="80" stroke="#0284c7" stroke-width="4" stroke-linecap="round"/>

  <!-- Step indicators -->
  <circle cx="100" cy="80" r="16" fill="#0284c7" filter="url(#glow)"/>
  <text x="100" y="85" text-anchor="middle" fill="white" font-size="12" font-weight="700">1</text>

  <circle cx="250" cy="80" r="16" fill="#7c3aed" filter="url(#glow)"/>
  <text x="250" y="85" text-anchor="middle" fill="white" font-size="12" font-weight="700">2</text>

  <circle cx="400" cy="80" r="16" fill="#0d9488" filter="url(#glow)"/>
  <text x="400" y="85" text-anchor="middle" fill="white" font-size="12" font-weight="700">3</text>

  <circle cx="550" cy="80" r="16" fill="#16a34a" filter="url(#glow)"/>
  <text x="550" y="85" text-anchor="middle" fill="white" font-size="12" font-weight="700">4</text>

  <circle cx="700" cy="80" r="16" fill="#1e293b" stroke="#475569" stroke-width="2"/>
  <text x="700" y="85" text-anchor="middle" fill="#475569" font-size="12" font-weight="700">5</text>

  <!-- Step labels -->
  <text x="100" y="108" text-anchor="middle" fill="#7dd3fc" font-size="9" font-weight="600">Profile</text>
  <text x="250" y="108" text-anchor="middle" fill="#c4b5fd" font-size="9" font-weight="600">KYC</text>
  <text x="400" y="108" text-anchor="middle" fill="#5eead4" font-size="9" font-weight="600">Documents</text>
  <text x="550" y="108" text-anchor="middle" fill="#86efac" font-size="9" font-weight="600">Banking</text>
  <text x="700" y="108" text-anchor="middle" fill="#475569" font-size="9" font-weight="600">e-Sign</text>

  <!-- Step 1: Profile Form -->
  <rect x="40" y="125" width="150" height="155" rx="10" fill="#0f172a" stroke="#0284c7" stroke-width="1.5"/>
  <rect x="40" y="125" width="150" height="28" rx="10" fill="url(#stepGrad1)"/>
  <rect x="40" y="141" width="150" height="12" fill="url(#stepGrad1)"/>
  <text x="115" y="143" text-anchor="middle" fill="white" font-size="10" font-weight="600">Dealer Profile</text>
  <g fill="none" stroke="#334155" stroke-width="1">
    <rect x="55" y="165" width="120" height="18" rx="4"/>
    <rect x="55" y="190" width="120" height="18" rx="4"/>
    <rect x="55" y="215" width="120" height="18" rx="4"/>
    <rect x="55" y="240" width="120" height="18" rx="4"/>
  </g>
  <text x="65" y="178" fill="#64748b" font-size="9">Full Name</text>
  <text x="65" y="178" fill="#e2e8f0" font-size="9" dx="60">Ravi Kumar</text>
  <text x="65" y="203" fill="#64748b" font-size="9">Phone</text>
  <text x="65" y="203" fill="#e2e8f0" font-size="9" dx="60">+91 99519...</text>
  <text x="65" y="228" fill="#64748b" font-size="9">City</text>
  <text x="65" y="228" fill="#e2e8f0" font-size="9" dx="60">Hyderabad</text>
  <text x="65" y="253" fill="#64748b" font-size="9">Business</text>
  <text x="65" y="253" fill="#e2e8f0" font-size="9" dx="60">Ravi Auto</text>
  <text x="115" y="274" text-anchor="middle" fill="#38bdf8" font-size="8">✓ Verified</text>

  <!-- Step 2: KYC -->
  <rect x="205" y="125" width="155" height="155" rx="10" fill="#0f172a" stroke="#7c3aed" stroke-width="1.5"/>
  <rect x="205" y="125" width="155" height="28" rx="10" fill="url(#stepGrad2)"/>
  <rect x="205" y="141" width="155" height="12" fill="url(#stepGrad2)"/>
  <text x="282" y="143" text-anchor="middle" fill="white" font-size="10" font-weight="600">KYC Verification</text>

  <!-- Aadhaar card mini -->
  <rect x="220" y="162" width="120" height="50" rx="6" fill="#1e293b" stroke="#7c3aed" stroke-width="0.8"/>
  <rect x="220" y="162" width="120" height="16" rx="6" fill="#3b0764"/>
  <rect x="220" y="170" width="120" height="8" fill="#3b0764"/>
  <text x="280" y="173" text-anchor="middle" fill="#c4b5fd" font-size="8" font-weight="700">AADHAAR</text>
  <circle cx="232" cy="192" r="8" fill="#2e1065"/>
  <text x="232" y="196" text-anchor="middle" fill="#a78bfa" font-size="8">ID</text>
  <text x="260" y="189" fill="#94a3b8" font-size="8">XXXX XXXX 4321</text>
  <text x="260" y="200" fill="#64748b" font-size="8">Ravi Kumar</text>
  <rect x="310" y="177" width="22" height="14" rx="7" fill="#14532d"/>
  <text x="321" y="186" text-anchor="middle" fill="#22c55e" font-size="8">✓</text>

  <!-- PAN -->
  <rect x="220" y="222" width="120" height="42" rx="6" fill="#1e293b" stroke="#7c3aed" stroke-width="0.8"/>
  <text x="235" y="238" fill="#c4b5fd" font-size="8" font-weight="700">PAN</text>
  <text x="270" y="238" fill="#94a3b8" font-size="9">ABCDE1234F</text>
  <text x="235" y="252" fill="#64748b" font-size="8">Decentro API Verified</text>
  <rect x="293" y="224" width="40" height="14" rx="7" fill="#14532d"/>
  <text x="313" y="233" text-anchor="middle" fill="#22c55e" font-size="8">Valid ✓</text>
  <text x="282" y="274" text-anchor="middle" fill="#a78bfa" font-size="8">60% effort saved</text>

  <!-- Step 3: Documents -->
  <rect x="373" y="125" width="155" height="155" rx="10" fill="#0f172a" stroke="#0d9488" stroke-width="1.5"/>
  <rect x="373" y="125" width="155" height="28" rx="10" fill="url(#stepGrad3)"/>
  <rect x="373" y="141" width="155" height="12" fill="url(#stepGrad3)"/>
  <text x="450" y="143" text-anchor="middle" fill="white" font-size="10" font-weight="600">Document Upload</text>
  <g>
    <rect x="388" y="162" width="125" height="24" rx="6" fill="#1e293b" stroke="#0d9488" stroke-width="0.8"/>
    <text x="400" y="177" fill="#5eead4" font-size="9">📄 GST Certificate</text>
    <rect x="484" y="165" width="22" height="14" rx="7" fill="#134e4a"/>
    <text x="495" y="174" text-anchor="middle" fill="#2dd4bf" font-size="8">✓</text>

    <rect x="388" y="194" width="125" height="24" rx="6" fill="#1e293b" stroke="#0d9488" stroke-width="0.8"/>
    <text x="400" y="209" fill="#5eead4" font-size="9">📄 Shop License</text>
    <rect x="484" y="197" width="22" height="14" rx="7" fill="#134e4a"/>
    <text x="495" y="206" text-anchor="middle" fill="#2dd4bf" font-size="8">✓</text>

    <rect x="388" y="226" width="125" height="24" rx="6" fill="#1e293b" stroke="#0d9488" stroke-width="0.8"/>
    <text x="400" y="241" fill="#5eead4" font-size="9">📄 Address Proof</text>
    <rect x="484" y="229" width="22" height="14" rx="7" fill="#134e4a"/>
    <text x="495" y="238" text-anchor="middle" fill="#2dd4bf" font-size="8">✓</text>

    <rect x="388" y="256" width="125" height="18" rx="6" fill="#134e4a" stroke="#0d9488" stroke-width="0.8"/>
    <text x="450" y="268" text-anchor="middle" fill="#2dd4bf" font-size="9" font-weight="600">All docs validated ✓</text>
  </g>

  <!-- Step 4: Banking -->
  <rect x="541" y="125" width="155" height="155" rx="10" fill="#0f172a" stroke="#16a34a" stroke-width="1.5"/>
  <rect x="541" y="125" width="155" height="28" rx="10" fill="url(#stepGrad4)"/>
  <rect x="541" y="141" width="155" height="12" fill="url(#stepGrad4)"/>
  <text x="618" y="143" text-anchor="middle" fill="white" font-size="10" font-weight="600">Banking Details</text>

  <!-- Bank card -->
  <rect x="556" y="162" width="125" height="70" rx="8" fill="#1e293b" stroke="#16a34a" stroke-width="0.8"/>
  <rect x="556" y="162" width="125" height="24" rx="8" fill="#14532d"/>
  <rect x="556" y="174" width="125" height="12" fill="#14532d"/>
  <text x="618" y="178" text-anchor="middle" fill="#86efac" font-size="9" font-weight="600">STATE BANK OF INDIA</text>
  <text x="570" y="200" fill="#94a3b8" font-size="9">A/C ••••••4521</text>
  <text x="570" y="213" fill="#94a3b8" font-size="8">IFSC: SBIN0001234</text>
  <text x="570" y="226" fill="#94a3b8" font-size="8">Kadapa Branch</text>

  <rect x="556" y="240" width="125" height="22" rx="6" fill="#14532d" stroke="#16a34a" stroke-width="0.8"/>
  <text x="618" y="254" text-anchor="middle" fill="#22c55e" font-size="9" font-weight="600">✓ Penny Drop Verified</text>

  <!-- e-Sign section -->
  <rect x="556" y="270" width="125" height="6" rx="3" fill="#1e293b" stroke="#475569" stroke-width="0.8"/>
  <text x="618" y="280" text-anchor="middle" fill="#475569" font-size="8">Pending e-Sign step</text>

  <!-- Digital signature area -->
  <rect x="200" y="305" width="400" height="70" rx="12" fill="#0a1628" stroke="#16a34a" stroke-width="1.5" filter="url(#glow)"/>
  <text x="280" y="325" text-anchor="middle" fill="#94a3b8" font-size="9">Digio e-Sign</text>
  <!-- Signature curve -->
  <path d="M240,345 Q260,330 280,345 Q300,360 320,340 Q340,320 360,338" fill="none" stroke="#22c55e" stroke-width="2" stroke-linecap="round" filter="url(#glow)"/>
  <!-- Green check -->
  <circle cx="520" cy="340" r="18" fill="#14532d" stroke="#22c55e" stroke-width="1.5" filter="url(#glow)"/>
  <text x="520" y="346" text-anchor="middle" fill="#22c55e" font-size="18" font-weight="700">✓</text>
  <text x="440" y="360" text-anchor="middle" fill="#4ade80" font-size="9">Aadhaar / DSC Signed</text>

  <!-- Title -->
  <text x="400" y="415" text-anchor="middle" fill="#e2e8f0" font-size="20" font-weight="700">Dealer Onboarding &amp; Digital Agreement</text>
  <text x="400" y="438" text-anchor="middle" fill="#64748b" font-size="12">Next.js · KYC · Digio e-Sign · Document Upload · Lifecycle Tracking</text>
</svg>
